# xmcd CD database file
#
# Track frame offsets:
#	150
#	14716
#	27393
#	40471
#	58387
#	74094
#	88977
#	101504
#	115945
#	135153
#	148591
#	163095
#	180453
#	198149
#	210949
#	220304
#	234002
#	247182
#	260068
#
# Disc length: 3643 seconds
#
# Revision: 1
# Processed by: cddbd v1.5.2PL0 Copyright (c) Steve Scherf et al.
# Submitted via: CDex 1.51
#
DISCID=1f0e3913
DTITLE=Jazz Inspiration - Swing Classics
DYEAR=1900
DGENRE=Jazz
TTITLE0=Away We Go 
TTITLE1=Leap Frog 
TTITLE2=The Preacher 
TTITLE3=It Don't Mean A Thing (If It Ain't Got That Swing) 
TTITLE4=Jumpin' At The Woodside 
TTITLE5=Begin The Beguine 
TTITLE6=Skycoach
TTITLE7=Crazy Rhythm 
TTITLE8=Intermission Riff 
TTITLE9=Opus No. 1 
TTITLE10=Early Autumn
TTITLE11=Whirly 
TTITLE12=Harlem Air Shaft 
TTITLE13=S'Posin' 
TTITLE14=Strike Up The Band 
TTITLE15=June Is Busting Out All Over
TTITLE16=Who, Me? 
TTITLE17=Jivin' With Jack The Bellboy 
TTITLE18=Flying Home 
EXTD=
EXTT0=
EXTT1=
EXTT2=
EXTT3=
EXTT4=
EXTT5=
EXTT6=
EXTT7=
EXTT8=
EXTT9=
EXTT10=
EXTT11=
EXTT12=
EXTT13=
EXTT14=
EXTT15=
EXTT16=
EXTT17=
EXTT18=
PLAYORDER=
